<svg aria-hidden="true" style="position: absolute; width: 0; height: 0; overflow: hidden;" version="1.1" xmlns="http://www.w3.org/2000/svg" xmlns:xlink="http://www.w3.org/1999/xlink">
<defs>
<symbol id="icon-search" viewBox="0 0 32 32">
<path d="M31.008 27.231l-7.58-6.447c-0.784-0.705-1.622-1.029-2.299-0.998 1.789-2.096 2.87-4.815 2.87-7.787 0-6.627-5.373-12-12-12s-12 5.373-12 12 5.373 12 12 12c2.972 0 5.691-1.081 7.787-2.87-0.031 0.677 0.293 1.515 0.998 2.299l6.447 7.58c1.104 1.226 2.907 1.33 4.007 0.23s0.997-2.903-0.23-4.007zM12 20c-4.418 0-8-3.582-8-8s3.582-8 8-8 8 3.582 8 8-3.582 8-8 8z"></path>
</symbol>
<symbol id="icon-shrink" viewBox="0 0 32 32">
<path d="M18 14h13l-5-5 6-6-3-3-6 6-5-5z"></path>
<path d="M18 18v13l5-5 6 6 3-3-6-6 5-5z"></path>
<path d="M14 18h-13l5 5-6 6 3 3 6-6 5 5z"></path>
<path d="M14 14v-13l-5 5-6-6-3 3 6 6-5 5z"></path>
</symbol>
<symbol id="icon-enlarge" viewBox="0 0 32 32">
<path d="M32 0h-13l5 5-6 6 3 3 6-6 5 5z"></path>
<path d="M32 32v-13l-5 5-6-6-3 3 6 6-5 5z"></path>
<path d="M0 32h13l-5-5 6-6-3-3-6 6-5-5z"></path>
<path d="M0 0v13l5-5 6 6 3-3-6-6 5-5z"></path>
</symbol>
<symbol id="icon-science" viewBox="0 0 32 32">
<path d="M26.375 24.563l-7.688-10.313v-5.563l1.75-2.25q0.313-0.375 0.125-0.75t-0.625-0.375h-7.875q-0.438 0-0.625 0.375t0.125 0.75l1.75 2.25v5.563l-7.688 10.313q-0.375 0.438-0.313 0.906t0.438 0.844 0.938 0.375h18.625q0.563 0 0.938-0.375t0.438-0.844-0.313-0.906z"></path>
</symbol>
<symbol id="icon-festibucks" viewBox="0 0 32 32">
<path d="M15 2c-8.284 0-15 6.716-15 15s6.716 15 15 15c8.284 0 15-6.716 15-15s-6.716-15-15-15zM15 29c-6.627 0-12-5.373-12-12s5.373-12 12-12c6.627 0 12 5.373 12 12s-5.373 12-12 12zM16 16v-4h4v-2h-4v-2h-2v2h-4v16h2v-8h2v8h2v-8h4v-2zM14 16h-2v-4h2z"></path>
</symbol>
<symbol id="icon-paint-format" viewBox="0 0 32 32">
<path d="M32 18v-12h-6v-2c0-1.1-0.9-2-2-2h-22c-1.1 0-2 0.9-2 2v6c0 1.1 0.9 2 2 2h22c1.1 0 2-0.9 2-2v-2h4v8h-18v4h-1c-0.552 0-1 0.448-1 1v10c0 0.552 0.448 1 1 1h4c0.552 0 1-0.448 1-1v-10c0-0.552-0.448-1-1-1h-1v-2h18zM24 6h-22v-2h22v2z"></path>
</symbol>
<symbol id="icon-music" viewBox="0 0 32 32">
<path d="M30 0h2v23c0 2.761-3.134 5-7 5s-7-2.239-7-5c0-2.761 3.134-5 7-5 1.959 0 3.729 0.575 5 1.501v-11.501l-16 3.556v15.444c0 2.761-3.134 5-7 5s-7-2.239-7-5c0-2.761 3.134-5 7-5 1.959 0 3.729 0.575 5 1.501v-19.501l18-4z"></path>
</symbol>
<symbol id="icon-envelop" viewBox="0 0 32 32">
<path d="M29 4h-26c-1.65 0-3 1.35-3 3v20c0 1.65 1.35 3 3 3h26c1.65 0 3-1.35 3-3v-20c0-1.65-1.35-3-3-3zM12.461 17.199l-8.461 6.59v-15.676l8.461 9.086zM5.512 8h20.976l-10.488 7.875-10.488-7.875zM12.79 17.553l3.21 3.447 3.21-3.447 6.58 8.447h-19.579l6.58-8.447zM19.539 17.199l8.461-9.086v15.676l-8.461-6.59z"></path>
</symbol>
<symbol id="icon-location" viewBox="0 0 32 32">
<path d="M16 0c-5.523 0-10 4.477-10 10 0 10 10 22 10 22s10-12 10-22c0-5.523-4.477-10-10-10zM16 16c-3.314 0-6-2.686-6-6s2.686-6 6-6 6 2.686 6 6-2.686 6-6 6z"></path>
</symbol>
<symbol id="icon-clock" viewBox="0 0 32 32">
<path d="M20.586 23.414l-6.586-6.586v-8.828h4v7.172l5.414 5.414zM16 0c-8.837 0-16 7.163-16 16s7.163 16 16 16 16-7.163 16-16-7.163-16-16-16zM16 28c-6.627 0-12-5.373-12-12s5.373-12 12-12c6.627 0 12 5.373 12 12s-5.373 12-12 12z"></path>
</symbol>
<symbol id="icon-calendar" viewBox="0 0 32 32">
<path d="M10 12h4v4h-4zM16 12h4v4h-4zM22 12h4v4h-4zM4 24h4v4h-4zM10 24h4v4h-4zM16 24h4v4h-4zM10 18h4v4h-4zM16 18h4v4h-4zM22 18h4v4h-4zM4 18h4v4h-4zM26 0v2h-4v-2h-14v2h-4v-2h-4v32h30v-32h-4zM28 30h-26v-22h26v22z"></path>
</symbol>
<symbol id="icon-reply" viewBox="0 0 32 32">
<path d="M14 24.238v7.762l-12-12 12-12v7.932c13.961 0.327 13.362-9.493 9.808-15.932 8.772 9.482 6.909 24.674-9.808 24.238z"></path>
</symbol>
<symbol id="icon-bubble" viewBox="0 0 32 32">
<path d="M16 2c8.837 0 16 5.82 16 13s-7.163 13-16 13c-0.849 0-1.682-0.054-2.495-0.158-3.437 3.437-7.539 4.053-11.505 4.144v-0.841c2.142-1.049 4-2.961 4-5.145 0-0.305-0.024-0.604-0.068-0.897-3.619-2.383-5.932-6.024-5.932-10.103 0-7.18 7.163-13 16-13z"></path>
</symbol>
<symbol id="icon-bubble2" viewBox="0 0 32 32">
<path d="M16 6c-1.717 0-3.375 0.271-4.928 0.804-1.46 0.502-2.76 1.211-3.863 2.108-2.069 1.681-3.209 3.843-3.209 6.088 0 1.259 0.35 2.481 1.039 3.63 0.711 1.185 1.781 2.268 3.093 3.133 0.949 0.625 1.587 1.623 1.755 2.747 0.056 0.375 0.091 0.753 0.105 1.129 0.233-0.194 0.461-0.401 0.684-0.624 0.755-0.755 1.774-1.172 2.828-1.172 0.168 0 0.336 0.011 0.505 0.032 0.655 0.083 1.325 0.126 1.99 0.126 1.717 0 3.375-0.271 4.928-0.804 1.46-0.502 2.76-1.211 3.863-2.108 2.069-1.681 3.209-3.843 3.209-6.088s-1.14-4.407-3.209-6.088c-1.104-0.897-2.404-1.606-3.863-2.108-1.553-0.534-3.211-0.804-4.928-0.804zM16 2v0c8.837 0 16 5.82 16 13s-7.163 13-16 13c-0.849 0-1.682-0.054-2.495-0.158-3.437 3.437-7.539 4.053-11.505 4.144v-0.841c2.142-1.049 4-2.961 4-5.145 0-0.305-0.024-0.604-0.068-0.897-3.619-2.383-5.932-6.024-5.932-10.103 0-7.18 7.163-13 16-13z"></path>
</symbol>
<symbol id="icon-user" viewBox="0 0 32 32">
<path d="M18 22.082v-1.649c2.203-1.241 4-4.337 4-7.432 0-4.971 0-9-6-9s-6 4.029-6 9c0 3.096 1.797 6.191 4 7.432v1.649c-6.784 0.555-12 3.888-12 7.918h28c0-4.030-5.216-7.364-12-7.918z"></path>
</symbol>
<symbol id="icon-user-plus" viewBox="0 0 32 32">
<path d="M12 23c0-4.726 2.996-8.765 7.189-10.319 0.509-1.142 0.811-2.411 0.811-3.681 0-4.971 0-9-6-9s-6 4.029-6 9c0 3.096 1.797 6.191 4 7.432v1.649c-6.784 0.555-12 3.888-12 7.918h12.416c-0.271-0.954-0.416-1.96-0.416-3z"></path>
<path d="M23 14c-4.971 0-9 4.029-9 9s4.029 9 9 9c4.971 0 9-4.029 9-9s-4.029-9-9-9zM28 24h-4v4h-2v-4h-4v-2h4v-4h2v4h4v2z"></path>
</symbol>
<symbol id="icon-hammer" viewBox="0 0 32 32">
<path d="M31.562 25.905l-9.423-9.423c-0.583-0.583-1.538-0.583-2.121 0l-0.707 0.707-5.75-5.75 9.439-9.439h-10l-4.439 4.439-0.439-0.439h-2.121v2.121l0.439 0.439-6.439 6.439 5 5 6.439-6.439 5.75 5.75-0.707 0.707c-0.583 0.583-0.583 1.538 0 2.121l9.423 9.423c0.583 0.583 1.538 0.583 2.121 0l3.535-3.535c0.583-0.583 0.583-1.538 0-2.121z"></path>
</symbol>
<symbol id="icon-bin2" viewBox="0 0 32 32">
<path d="M6 32h20l2-22h-24zM20 4v-4h-8v4h-10v6l2-2h24l2 2v-6h-10zM18 4h-4v-2h4v2z"></path>
</symbol>
<symbol id="icon-menu" viewBox="0 0 32 32">
<path d="M2 6h28v6h-28zM2 14h28v6h-28zM2 22h28v6h-28z"></path>
</symbol>
<symbol id="icon-flag" viewBox="0 0 32 32">
<path d="M0 0h4v32h-4v-32z"></path>
<path d="M26 20.094c2.582 0 4.83-0.625 6-1.547v-16c-1.17 0.922-3.418 1.547-6 1.547s-4.83-0.625-6-1.547v16c1.17 0.922 3.418 1.547 6 1.547z"></path>
<path d="M19 1.016c-1.466-0.623-3.61-1.016-6-1.016-3.012 0-5.635 0.625-7 1.547v16c1.365-0.922 3.988-1.547 7-1.547 2.39 0 4.534 0.393 6 1.016v-16z"></path>
</symbol>
<symbol id="icon-eye" viewBox="0 0 32 32">
<path d="M16 6c-6.979 0-13.028 4.064-16 10 2.972 5.936 9.021 10 16 10s13.027-4.064 16-10c-2.972-5.936-9.021-10-16-10zM23.889 11.303c1.88 1.199 3.473 2.805 4.67 4.697-1.197 1.891-2.79 3.498-4.67 4.697-2.362 1.507-5.090 2.303-7.889 2.303s-5.527-0.796-7.889-2.303c-1.88-1.199-3.473-2.805-4.67-4.697 1.197-1.891 2.79-3.498 4.67-4.697 0.122-0.078 0.246-0.154 0.371-0.228-0.311 0.854-0.482 1.776-0.482 2.737 0 4.418 3.582 8 8 8s8-3.582 8-8c0-0.962-0.17-1.883-0.482-2.737 0.124 0.074 0.248 0.15 0.371 0.228v0zM16 13c0 1.657-1.343 3-3 3s-3-1.343-3-3 1.343-3 3-3 3 1.343 3 3z"></path>
</symbol>
<symbol id="icon-star-full" viewBox="0 0 32 32">
<path d="M32 12.408l-11.056-1.607-4.944-10.018-4.944 10.018-11.056 1.607 8 7.798-1.889 11.011 9.889-5.199 9.889 5.199-1.889-11.011 8-7.798z"></path>
</symbol>
<symbol id="icon-cancel-circle" viewBox="0 0 32 32">
<path d="M16 0c-8.837 0-16 7.163-16 16s7.163 16 16 16 16-7.163 16-16-7.163-16-16-16zM16 29c-7.18 0-13-5.82-13-13s5.82-13 13-13 13 5.82 13 13-5.82 13-13 13z"></path>
<path d="M21 8l-5 5-5-5-3 3 5 5-5 5 3 3 5-5 5 5 3-3-5-5 5-5z"></path>
</symbol>
<symbol id="icon-checkmark" viewBox="0 0 32 32">
<path d="M27 4l-15 15-7-7-5 5 12 12 20-20z"></path>
</symbol>
<symbol id="icon-enter" viewBox="0 0 32 32">
<path d="M12 16h-10v-4h10v-4l6 6-6 6zM32 0v26l-12 6v-6h-12v-8h2v6h10v-18l8-4h-18v8h-2v-10z"></path>
</symbol>
<symbol id="icon-exit" viewBox="0 0 32 32">
<path d="M24 20v-4h-10v-4h10v-4l6 6zM22 18v8h-10v6l-12-6v-26h22v10h-2v-8h-16l8 4v18h8v-6z"></path>
</symbol>
<symbol id="icon-checkbox-checked" viewBox="0 0 32 32">
<path d="M28 0h-24c-2.2 0-4 1.8-4 4v24c0 2.2 1.8 4 4 4h24c2.2 0 4-1.8 4-4v-24c0-2.2-1.8-4-4-4zM14 24.828l-7.414-7.414 2.828-2.828 4.586 4.586 9.586-9.586 2.828 2.828-12.414 12.414z"></path>
</symbol>
<symbol id="icon-share" viewBox="0 0 32 32">
<path d="M8 20c0 0 1.838-6 12-6v6l12-8-12-8v6c-8 0-12 4.99-12 10zM22 24h-18v-12h3.934c0.315-0.372 0.654-0.729 1.015-1.068 1.374-1.287 3.018-2.27 4.879-2.932h-13.827v20h26v-8.395l-4 2.667v1.728z"></path>
</symbol>
<symbol id="icon-spotify" viewBox="0 0 32 32">
<path d="M16 0c-8.8 0-16 7.2-16 16s7.2 16 16 16 16-7.2 16-16-7.119-16-16-16zM23.363 23.119c-0.319 0.481-0.881 0.637-1.363 0.319-3.762-2.319-8.481-2.8-14.081-1.519-0.563 0.163-1.037-0.238-1.2-0.719-0.162-0.563 0.237-1.038 0.719-1.2 6.081-1.363 11.363-0.8 15.519 1.762 0.563 0.238 0.644 0.875 0.406 1.356zM25.281 18.719c-0.4 0.563-1.119 0.8-1.681 0.4-4.319-2.637-10.881-3.438-15.919-1.837-0.638 0.163-1.362-0.163-1.519-0.8-0.162-0.637 0.162-1.363 0.8-1.519 5.838-1.762 13.037-0.881 18 2.163 0.475 0.238 0.719 1.038 0.319 1.594zM25.438 14.238c-5.119-3.037-13.681-3.363-18.563-1.838-0.8 0.238-1.6-0.238-1.838-0.963-0.237-0.8 0.237-1.6 0.963-1.838 5.681-1.681 15.038-1.363 20.962 2.162 0.719 0.4 0.962 1.363 0.563 2.081-0.406 0.556-1.363 0.794-2.087 0.394z"></path>
</symbol>
<symbol id="icon-wikipedia" viewBox="0 0 32 32">
<path d="M30.212 7.3c0 0.1-0.031 0.194-0.094 0.281-0.063 0.081-0.131 0.125-0.212 0.125-0.625 0.063-1.137 0.263-1.531 0.6-0.4 0.338-0.806 0.994-1.225 1.95l-6.45 14.544c-0.044 0.137-0.163 0.2-0.356 0.2-0.15 0-0.269-0.069-0.356-0.2l-3.619-7.563-4.162 7.563c-0.088 0.137-0.2 0.2-0.356 0.2-0.188 0-0.306-0.069-0.369-0.2l-6.331-14.537c-0.394-0.9-0.813-1.531-1.25-1.887s-1.050-0.581-1.831-0.662c-0.069 0-0.131-0.037-0.188-0.106-0.063-0.069-0.087-0.15-0.087-0.244 0-0.237 0.069-0.356 0.2-0.356 0.562 0 1.156 0.025 1.775 0.075 0.575 0.050 1.112 0.075 1.619 0.075 0.513 0 1.125-0.025 1.825-0.075 0.731-0.050 1.381-0.075 1.95-0.075 0.137 0 0.2 0.119 0.2 0.356s-0.044 0.35-0.125 0.35c-0.563 0.044-1.012 0.188-1.338 0.431s-0.487 0.563-0.487 0.963c0 0.2 0.069 0.456 0.2 0.756l5.231 11.825 2.975-5.613-2.769-5.806c-0.5-1.037-0.906-1.706-1.225-2.006s-0.806-0.481-1.456-0.55c-0.063 0-0.113-0.037-0.169-0.106s-0.081-0.15-0.081-0.244c0-0.237 0.056-0.356 0.175-0.356 0.563 0 1.081 0.025 1.556 0.075 0.456 0.050 0.938 0.075 1.456 0.075 0.506 0 1.037-0.025 1.606-0.075 0.581-0.050 1.156-0.075 1.719-0.075 0.137 0 0.2 0.119 0.2 0.356s-0.038 0.35-0.125 0.35c-1.131 0.075-1.694 0.4-1.694 0.963 0 0.25 0.131 0.644 0.394 1.175l1.831 3.719 1.825-3.4c0.25-0.481 0.381-0.887 0.381-1.213 0-0.775-0.563-1.188-1.694-1.237-0.1 0-0.15-0.119-0.15-0.35 0-0.088 0.025-0.162 0.075-0.237s0.1-0.112 0.15-0.112c0.406 0 0.9 0.025 1.494 0.075 0.563 0.050 1.031 0.075 1.394 0.075 0.262 0 0.644-0.025 1.15-0.063 0.637-0.056 1.175-0.088 1.606-0.088 0.1 0 0.15 0.1 0.15 0.3 0 0.269-0.094 0.406-0.275 0.406-0.656 0.069-1.188 0.25-1.587 0.544s-0.9 0.963-1.5 2.013l-2.444 4.475 3.288 6.7 4.856-11.294c0.169-0.412 0.25-0.794 0.25-1.137 0-0.825-0.563-1.263-1.694-1.319-0.1 0-0.15-0.119-0.15-0.35 0-0.237 0.075-0.356 0.225-0.356 0.413 0 0.9 0.025 1.469 0.075 0.525 0.050 0.962 0.075 1.313 0.075 0.375 0 0.8-0.025 1.288-0.075 0.506-0.050 0.962-0.075 1.369-0.075 0.125 0 0.188 0.1 0.188 0.3z"></path>
</symbol>
</defs>
</svg>
